<svg width='700px' height="300px" viewBox='0,0,700,300' xmlns="http://www.w3.org/2000/svg">
  <!-- лиса -->
  <g id="fox">
    <!-- тень -->
    <ellipse cx="190" cy="250" rx="50" ry="15" fill="#ccc" />
    <!-- тело -->
    <circle cx="190" cy="150" r="100" fill="orange" />
    <!-- глаза -->
    <circle cx="180" cy="130" r="30" fill="white" />
    <circle cx="220" cy="130" r="30" fill="white" />
    <circle cx="185" cy="130" r="7" fill="black" />
    <circle cx="220" cy="130" r="7" fill="black" />
    <!-- нос -->
    <circle cx="205" cy="160" r="13" fill="black" />
    <!-- рот -->
    <ellipse cx="180" cy="200" rx="13" ry="8" fill="red" />
    <!-- хвост -->
    <ellipse cx="60" cy="160" rx="60" ry="20" transform="rotate(15, 70, 170)" fill="orange" />
    <polygon points="7,145 30,135 25,163" fill="white" />
    <!-- уши -->
    <polygon points="120,80 130,40 180,80" fill="orange" />
    <polygon points="190,60 210,30 240,70" fill="orange" />
    <polygon points="130,75 133,50 150,65" fill="black" />
    <polygon points="200,55 210,40 225,60" fill="black" />
  </g>
  <!-- колобок -->
  <g id="kolobok">
    <!-- тень -->
    <ellipse cx="500" cy="250" rx="50" ry="15" fill="#ccc" />
    <!-- тело -->
    <circle cx="500" cy="150" r="100" fill="#ffd818" />
    <!-- глаза -->
    <circle cx="460" cy="130" r="30" fill="white" />
    <circle cx="510" cy="130" r="30" fill="white" />
    <circle cx="450" cy="130" r="7" fill="black" />
    <circle cx="500" cy="130" r="7" fill="black" />
    <!-- рот -->
    <ellipse cx="480" cy="190" rx="10" ry="18" fill="red" />
  </g>
</svg>